<?xml version="1.0" standalone="no"?>
<!DOCTYPE svg PUBLIC "-//W3C//DTD SVG 20010904//EN"
 "http://www.w3.org/TR/2001/REC-SVG-20010904/DTD/svg10.dtd">
<svg version="1.0" xmlns="http://www.w3.org/2000/svg"
 width="100.000000pt" height="100.000000pt" viewBox="0 0 100.000000 100.000000"
 preserveAspectRatio="xMidYMid meet">
<g transform="translate(0.000000,100.000000) scale(0.100000,-0.100000)"
fill="#F57D01" stroke="none">
<path d="M293 975 c-57 -26 -64 -38 -34 -55 11 -5 23 -19 26 -31 5 -14 13 -19
23 -15 136 43 144 49 140 90 -3 30 -5 31 -53 33 -35 2 -66 -5 -102 -22z"/>
<path d="M557 993 c-12 -11 -8 -60 6 -70 10 -8 55 -26 129 -49 10 -4 18 1 23
15 3 12 15 26 26 31 31 17 23 29 -37 55 -53 23 -132 33 -147 18z"/>
<path d="M133 915 c-68 -29 -80 -120 -22 -169 45 -38 92 -35 135 8 38 38 43
70 19 116 -25 48 -81 67 -132 45z"/>
<path d="M793 923 c-32 -6 -73 -59 -73 -94 0 -62 44 -109 100 -109 46 0 85 29
100 74 24 73 -48 145 -127 129z"/>
<path d="M28 713 c-13 -29 -22 -70 -22 -103 l-1 -55 34 0 c37 0 37 0 72 89 18
48 20 61 9 64 -8 3 -24 16 -37 28 -13 13 -26 24 -29 24 -3 0 -14 -21 -26 -47z"/>
<path d="M915 736 c-12 -12 -27 -25 -35 -28 -11 -3 -9 -15 9 -64 35 -89 35
-89 72 -89 33 0 34 2 37 41 3 42 -34 155 -53 161 -6 1 -19 -8 -30 -21z"/>
<path d="M476 724 c-28 -28 -12 -64 29 -64 38 -1 104 -38 125 -72 26 -42 25
-44 -7 -43 -45 0 -43 -42 4 -98 58 -70 77 -71 135 -6 49 56 56 84 26 103 -13
8 -23 8 -38 -2 -18 -11 -20 -10 -20 10 0 25 -30 80 -64 116 -47 53 -161 86
-190 56z"/>
<path d="M235 558 c-47 -55 -54 -82 -23 -102 13 -8 23 -8 38 2 18 11 20 10 20
-10 0 -25 30 -80 64 -116 47 -53 161 -86 190 -56 28 28 12 64 -28 64 -39 1
-105 38 -126 72 -26 42 -25 44 8 43 22 0 28 5 30 27 3 21 -7 39 -44 78 -26 27
-55 50 -65 50 -9 0 -38 -24 -64 -52z"/>
<path d="M7 444 c-14 -14 -7 -84 14 -136 28 -71 34 -76 62 -46 13 14 29 27 37
30 11 3 9 16 -9 64 -13 32 -27 66 -31 74 -7 16 -61 26 -73 14z"/>
<path d="M922 438 c-6 -6 -12 -18 -12 -26 0 -7 -10 -36 -22 -64 -18 -42 -19
-53 -8 -56 7 -3 24 -16 36 -29 13 -14 27 -22 32 -19 19 11 53 124 50 162 -3
35 -6 39 -33 42 -17 2 -36 -3 -43 -10z"/>
<path d="M110 251 c-39 -38 -46 -71 -25 -114 33 -70 121 -83 170 -25 35 42 33
88 -6 133 -41 47 -96 49 -139 6z"/>
<path d="M763 263 c-51 -45 -57 -107 -15 -154 52 -58 144 -37 173 40 13 32 -6
85 -38 111 -32 25 -93 26 -120 3z"/>
<path d="M285 111 c-3 -12 -15 -26 -26 -31 -31 -17 -23 -29 38 -56 40 -17 71
-24 103 -22 42 3 45 5 48 34 4 41 -4 47 -140 90 -10 4 -18 -1 -23 -15z"/>
<path d="M670 120 c-8 -6 -34 -15 -57 -21 -51 -14 -65 -29 -61 -66 3 -26 7
-28 48 -31 32 -2 63 5 103 22 61 27 69 39 38 56 -11 5 -23 19 -26 30 -7 22
-22 25 -45 10z"/>
</g>
</svg>
