<?xml version="1.0" standalone="no"?>
<!DOCTYPE svg PUBLIC "-//W3C//DTD SVG 20010904//EN"
 "http://www.w3.org/TR/2001/REC-SVG-20010904/DTD/svg10.dtd">
<svg version="1.0"
    xmlns="http://www.w3.org/2000/svg" width="960.000000pt" height="540.000000pt" viewBox="0 0 960.000000 540.000000" preserveAspectRatio="xMidYMid meet">
    <metadata>
Created by potrace 1.16, written by Peter Selinger 2001-2019
    </metadata>
    <g transform="translate(0.000000,540.000000) scale(0.100000,-0.100000)" fill="#004000" stroke="none">
        <path d="M4215 4625 c-372 -58 -682 -344 -782 -720 -23 -87 -26 -120 -27 -255
0 -129 3 -170 22 -244 58 -231 180 -418 364 -557 196 -147 418 -210 663 -187
350 32 671 280 799 618 53 138 60 185 61 365 0 155 -3 179 -28 270 -45 160
-143 330 -258 444 -112 110 -246 192 -389 234 -153 46 -277 56 -425 32z m-77
-999 c36 -20 62 -66 62 -113 0 -80 -80 -136 -157 -110 -52 17 -78 57 -78 119
0 45 4 53 37 84 41 37 92 45 136 20z m562 -1 c37 -19 60 -63 60 -114 0 -78
-81 -134 -157 -108 -52 17 -78 57 -78 119 0 45 4 53 37 84 43 38 88 45 138 19z
m-50 -669 c0 -30 -48 -82 -100 -108 -152 -77 -408 -44 -477 61 -42 63 -53 61
277 61 245 0 300 -2 300 -14z"/>
        <path d="M3006 3227 c-7 -28 10 -53 72 -102 l51 -40 1 -65 c1 -160 70 -311
137 -298 23 4 63 65 63 97 1 25 1 25 15 7 17 -23 66 -169 95 -285 32 -129 71
-195 133 -228 84 -43 194 61 213 200 l7 48 -52 -35 c-59 -40 -127 -54 -170
-37 -33 14 -91 73 -114 116 -9 17 -26 59 -38 95 -11 36 -33 90 -48 120 -20 39
-30 77 -34 130 -11 134 -54 235 -111 255 -25 8 -31 6 -52 -18 -13 -16 -24 -35
-24 -43 0 -8 -4 -14 -10 -14 -5 0 -10 3 -10 8 0 4 -27 31 -59 59 -55 49 -59
51 -65 30z"/>
    </g>
</svg>
